<?xml version="1.0" standalone="no"?>
<!DOCTYPE svg PUBLIC "-//W3C//DTD SVG 20010904//EN"
 "http://www.w3.org/TR/2001/REC-SVG-20010904/DTD/svg10.dtd">
<svg version="1.0" xmlns="http://www.w3.org/2000/svg"
 width="2384.000000pt" height="2384.000000pt" viewBox="0 0 2384.000000 2384.000000"
 preserveAspectRatio="xMidYMid meet">
<metadata>
Created by potrace 1.11, written by Peter Selinger 2001-2013
</metadata>
<g transform="translate(0.000000,2384.000000) scale(0.100000,-0.100000)"
fill="#000000" stroke="none">
<path d="M11449 23825 c-2 -1 -67 -6 -144 -9 -149 -7 -236 -13 -325 -21 -30
-2 -86 -7 -125 -10 -38 -4 -86 -8 -105 -10 -19 -2 -82 -9 -140 -15 -58 -7
-120 -13 -137 -16 -44 -5 -98 -12 -158 -19 -27 -3 -72 -10 -100 -15 -27 -5
-70 -11 -95 -15 -25 -3 -55 -7 -66 -9 -12 -2 -39 -7 -60 -10 -158 -25 -195
-32 -323 -57 -57 -12 -116 -23 -130 -25 -14 -3 -33 -7 -41 -9 -8 -2 -28 -7
-45 -10 -36 -6 -43 -7 -165 -35 -52 -11 -176 -41 -275 -66 -99 -25 -187 -47
-195 -49 -147 -33 -724 -217 -1005 -320 -516 -190 -1135 -470 -1575 -713 -69
-38 -152 -84 -185 -102 -411 -226 -1073 -670 -1475 -989 -36 -28 -92 -72 -125
-99 -107 -84 -291 -240 -445 -376 -272 -240 -752 -717 -957 -952 -81 -93 -140
-160 -153 -174 -35 -37 -215 -256 -322 -390 -260 -328 -555 -745 -753 -1065
-37 -60 -78 -126 -90 -145 -155 -242 -474 -843 -648 -1218 -340 -737 -637
-1629 -812 -2442 -9 -40 -66 -328 -70 -350 -2 -14 -15 -90 -29 -170 -13 -80
-27 -165 -31 -190 -3 -25 -10 -72 -15 -105 -5 -33 -12 -82 -15 -110 -4 -27 -8
-61 -10 -75 -12 -82 -27 -219 -40 -360 -4 -47 -9 -93 -11 -102 -1 -10 -6 -64
-9 -120 -3 -57 -8 -114 -10 -128 -19 -126 -28 -1154 -12 -1420 12 -209 17
-283 22 -325 3 -22 7 -76 10 -120 4 -44 8 -91 10 -105 2 -14 7 -56 10 -95 3
-38 7 -81 9 -95 2 -14 6 -54 10 -90 4 -36 9 -76 12 -90 2 -14 6 -45 9 -70 3
-25 7 -56 9 -70 3 -14 8 -45 11 -70 3 -25 10 -70 15 -100 5 -30 12 -68 14 -85
37 -230 109 -604 136 -704 5 -20 12 -51 15 -70 3 -19 8 -37 10 -41 2 -3 6 -17
8 -31 10 -51 80 -321 123 -474 154 -543 365 -1126 586 -1615 16 -36 41 -92 56
-125 38 -86 271 -551 338 -675 48 -90 192 -342 271 -475 219 -368 595 -912
867 -1250 95 -119 284 -349 311 -379 6 -6 39 -45 75 -86 36 -41 74 -84 85 -96
11 -12 63 -68 115 -125 106 -116 537 -550 645 -649 39 -35 95 -87 125 -115 30
-27 89 -80 130 -115 41 -36 77 -68 80 -71 40 -45 559 -457 775 -614 177 -130
693 -476 750 -505 6 -3 98 -57 205 -121 392 -233 840 -464 1240 -639 52 -23
113 -50 135 -60 94 -42 452 -182 600 -235 88 -31 169 -61 180 -65 56 -24 587
-189 693 -216 9 -2 42 -11 72 -19 133 -38 526 -134 610 -150 14 -2 48 -9 75
-15 28 -6 59 -12 70 -14 25 -5 121 -24 155 -31 14 -3 39 -8 55 -10 61 -11 141
-25 170 -29 17 -3 68 -12 115 -20 47 -8 110 -17 140 -21 30 -3 62 -8 70 -10 8
-2 40 -7 70 -10 30 -3 66 -8 80 -10 14 -2 48 -6 75 -10 28 -3 66 -7 85 -10 19
-2 64 -6 100 -10 36 -3 76 -7 90 -10 14 -2 61 -7 105 -10 44 -3 103 -7 130
-10 67 -6 162 -13 330 -22 187 -11 1043 -10 1225 1 80 4 165 9 190 11 52 3
185 14 250 20 25 2 74 7 110 10 93 9 144 14 237 26 131 15 166 20 198 25 17 2
50 6 75 9 40 5 496 80 545 90 11 2 66 13 123 24 56 11 116 23 134 26 17 3 35
8 38 10 4 3 23 7 42 10 19 3 118 26 219 50 101 25 195 48 209 51 149 32 687
196 970 296 477 168 876 338 1360 580 243 122 340 172 475 248 33 19 71 40 85
47 14 8 48 28 75 44 28 17 58 33 68 36 9 3 17 9 17 13 0 4 8 10 18 14 9 3 24
10 32 16 8 5 89 55 180 111 366 226 817 542 1120 786 137 110 267 217 315 258
33 29 73 63 89 76 16 13 34 29 40 34 6 6 81 73 166 150 156 140 592 570 731
721 439 476 858 1008 1183 1499 47 72 90 137 96 145 5 8 42 67 82 130 39 63
81 131 93 150 36 55 155 261 155 267 0 3 8 17 19 31 10 15 33 54 51 87 19 33
53 96 77 140 54 100 297 586 340 680 17 39 41 93 54 120 12 28 35 78 50 113
16 34 29 65 29 68 0 3 6 20 14 37 40 87 221 544 230 582 2 6 6 17 9 25 22 56
163 482 187 565 6 22 18 60 25 85 16 52 74 258 80 280 2 8 22 88 45 177 22 89
43 170 45 180 2 10 14 68 28 128 14 61 30 135 36 165 6 30 14 66 17 80 6 29 8
39 35 180 11 58 22 121 25 140 2 19 11 71 19 115 8 44 17 103 21 130 3 28 8
59 10 70 9 44 47 349 59 470 3 33 9 83 12 110 3 28 7 66 8 85 1 19 6 78 10
130 25 321 30 468 30 935 0 402 -7 670 -20 815 -2 19 -6 76 -10 125 -3 50 -8
108 -10 130 -12 131 -17 174 -20 205 -3 19 -7 60 -11 90 -3 30 -7 66 -9 80 -1
14 -6 52 -10 85 -3 33 -10 85 -15 115 -5 30 -12 75 -15 100 -5 46 -32 214 -50
315 -3 17 -10 57 -16 90 -66 376 -207 960 -319 1320 -57 180 -128 397 -170
515 -29 80 -60 168 -70 195 -22 64 -174 442 -201 504 -12 25 -27 60 -34 76
-163 380 -464 965 -685 1335 -133 222 -472 743 -500 770 -3 3 -28 37 -55 75
-98 139 -425 568 -455 595 -3 3 -25 30 -50 60 -112 139 -281 332 -460 525
-166 180 -636 641 -780 765 -14 12 -41 36 -60 53 -158 144 -510 430 -735 598
-77 57 -144 108 -150 112 -11 9 -139 99 -169 119 -10 7 -28 20 -40 29 -22 17
-398 266 -431 286 -11 6 -54 33 -95 59 -532 335 -1205 674 -1860 936 -96 39
-197 78 -225 88 -27 10 -113 40 -190 67 -213 76 -601 201 -735 237 -30 8 -82
22 -115 31 -79 21 -278 73 -307 80 -13 2 -43 9 -68 14 -25 6 -60 15 -77 20
-18 5 -33 8 -33 6 0 -3 -11 0 -25 5 -14 5 -36 12 -48 14 -12 2 -112 22 -222
45 -110 22 -256 49 -325 61 -69 11 -138 22 -155 25 -70 12 -92 15 -135 21 -25
3 -56 7 -69 9 -22 4 -57 9 -151 21 -19 2 -48 6 -65 9 -16 2 -57 7 -90 10 -33
3 -73 8 -90 10 -32 4 -102 10 -225 20 -41 4 -93 8 -115 10 -22 3 -85 7 -140
10 -55 3 -127 8 -160 11 -68 6 -1101 15 -1106 9z m2281 -3568 c154 -52 248
-123 338 -253 12 -18 22 -35 22 -39 0 -3 9 -24 19 -48 36 -80 45 -122 44 -222
0 -89 -8 -128 -68 -365 -36 -146 -68 -272 -70 -281 -2 -9 -8 -34 -14 -55 -6
-22 -11 -46 -11 -54 0 -13 81 -15 672 -15 l673 0 48 150 c63 194 103 322 167
525 72 232 88 274 130 339 84 130 179 199 344 251 51 16 88 18 280 16 121 -1
230 -5 241 -8 183 -56 313 -158 389 -308 77 -153 83 -321 16 -535 -5 -16 -11
-41 -14 -55 -2 -14 -16 -72 -31 -130 -15 -58 -28 -112 -30 -120 -2 -8 -13 -52
-24 -97 -12 -45 -21 -85 -21 -90 0 -4 154 -8 342 -7 387 1 471 -4 763 -47 77
-11 158 -24 180 -29 22 -5 56 -12 75 -15 19 -3 64 -13 100 -21 36 -9 72 -17
80 -19 341 -75 801 -266 1080 -450 176 -116 369 -283 483 -418 23 -27 47 -55
53 -61 18 -19 129 -167 151 -202 71 -111 146 -246 181 -324 11 -25 30 -67 42
-95 57 -128 135 -403 155 -545 3 -25 8 -52 10 -60 16 -62 19 -366 19 -1860 0
-1497 -3 -1820 -19 -1880 -2 -8 -6 -32 -9 -52 -35 -235 -169 -561 -317 -770
-132 -186 -308 -375 -464 -497 -44 -34 -87 -68 -95 -74 -33 -27 -199 -137
-271 -180 -107 -64 -285 -155 -404 -206 -55 -24 -113 -49 -130 -56 -117 -52
-419 -151 -580 -191 -33 -9 -67 -17 -75 -20 -24 -6 -202 -44 -235 -50 -16 -2
-37 -7 -45 -9 -8 -2 -39 -7 -69 -10 -30 -4 -61 -8 -70 -10 -32 -6 -178 -20
-311 -30 -25 -2 -541 -4 -1147 -5 l-1102 -1 -34 -107 c-19 -59 -51 -161 -72
-227 -20 -66 -50 -160 -66 -209 -16 -49 -29 -92 -29 -97 0 -4 -5 -20 -12 -36
-6 -15 -12 -33 -13 -39 -11 -51 -71 -215 -95 -259 -82 -151 -233 -263 -405
-299 -35 -7 -112 -12 -176 -11 -94 2 -128 7 -194 29 -240 82 -397 287 -412
535 -5 82 -2 112 20 201 28 110 122 467 132 500 6 19 -9 19 -706 17 l-713 -2
-38 -120 c-22 -66 -40 -124 -42 -130 -1 -5 -11 -37 -21 -70 -10 -33 -20 -64
-21 -70 -4 -17 -103 -325 -144 -447 -69 -205 -157 -310 -324 -389 -98 -46
-141 -53 -316 -54 -185 0 -227 6 -317 46 -24 10 -45 19 -49 19 -3 0 -26 14
-52 32 -115 77 -205 209 -241 350 -30 119 -22 199 49 469 34 129 63 241 65
250 2 8 10 39 19 67 l15 52 -844 0 c-464 0 -846 -4 -849 -8 -3 -5 -7 -19 -9
-33 -3 -13 -21 -105 -42 -204 -20 -99 -39 -190 -41 -202 -2 -12 -24 -120 -49
-240 -24 -120 -46 -231 -49 -247 -3 -16 -16 -83 -30 -150 -14 -66 -28 -137
-31 -156 -3 -19 -8 -42 -10 -50 -2 -8 -6 -26 -9 -40 -3 -14 -16 -81 -31 -150
-14 -69 -27 -134 -29 -145 -5 -25 -55 -273 -61 -300 -2 -11 -22 -110 -44 -220
-22 -110 -86 -425 -141 -700 -108 -529 -107 -526 -114 -565 -3 -14 -21 -101
-40 -195 -20 -93 -37 -181 -40 -195 -2 -14 -18 -92 -35 -175 -17 -82 -33 -159
-35 -170 -2 -11 -25 -123 -51 -250 -26 -126 -49 -241 -51 -255 -2 -14 -9 -45
-14 -70 -5 -25 -12 -56 -14 -70 -2 -14 -9 -46 -15 -73 -6 -26 -14 -64 -17 -85
-3 -20 -7 -45 -10 -54 -3 -10 -7 -30 -10 -45 -3 -16 -14 -71 -25 -123 -11 -52
-22 -106 -24 -120 -6 -33 -12 -64 -25 -125 -16 -80 -16 -78 -70 -345 -29 -140
-53 -257 -55 -260 -4 -7 -3032 -7 -3038 0 -3 3 6 57 19 120 13 63 26 129 29
145 3 17 31 152 61 300 31 149 57 279 60 290 2 11 6 31 9 45 2 14 7 40 10 57
3 18 12 61 20 95 13 60 18 85 30 153 3 17 8 37 10 45 2 8 7 31 10 50 3 19 17
87 30 150 13 63 26 126 29 140 2 14 11 59 20 100 8 41 17 86 20 100 2 14 9 46
15 73 6 26 14 64 17 85 3 20 7 45 10 54 8 28 15 61 20 98 3 19 9 51 14 70 5
19 12 49 14 65 3 17 8 41 11 55 6 27 33 159 41 200 3 14 14 70 25 125 12 55
23 109 25 120 2 11 24 121 50 245 25 124 47 236 50 250 2 14 9 45 14 70 5 25
12 56 14 70 7 36 67 332 71 350 6 24 44 217 50 253 3 17 10 48 15 67 5 19 11
49 14 65 3 17 7 41 10 55 3 14 13 59 21 100 8 41 40 199 70 350 31 151 59 286
61 300 3 14 20 99 39 190 43 209 45 221 70 350 7 34 34 169 41 200 3 14 7 36
10 50 17 86 44 219 48 240 7 30 35 167 40 195 2 11 18 90 36 175 17 85 33 165
36 178 2 12 6 32 9 45 2 12 7 36 10 52 3 17 17 82 30 145 13 63 26 129 29 145
4 17 8 41 11 55 2 14 16 81 30 150 33 155 31 148 39 190 3 19 8 44 10 55 26
121 237 1162 242 1190 2 11 17 88 34 170 18 83 33 159 35 170 1 11 10 56 20
100 9 44 19 91 22 105 2 14 24 124 49 245 25 121 47 231 50 245 2 14 7 36 10
50 3 14 8 36 10 50 2 14 7 36 10 50 3 14 8 36 10 50 3 14 16 77 29 140 13 63
27 131 30 150 3 19 8 42 10 50 2 8 7 29 10 45 5 34 10 58 25 130 6 28 12 59
14 70 2 11 7 31 10 45 3 14 8 36 10 50 2 14 14 72 26 130 13 58 23 110 23 116
0 8 415 11 1559 11 1435 1 1558 -1 1554 -16 -3 -9 -9 -41 -15 -71 -16 -81 -15
-74 -70 -345 -28 -137 -53 -259 -55 -270 -3 -11 -23 -110 -46 -220 -53 -255
-49 -236 -55 -265 -3 -14 -18 -90 -35 -170 -17 -80 -33 -161 -36 -180 -3 -19
-9 -48 -14 -65 -7 -24 -50 -232 -75 -366 -3 -13 -7 -35 -10 -49 -3 -14 -8 -36
-11 -50 -3 -14 -12 -56 -20 -95 -8 -38 -17 -86 -20 -105 l-6 -35 3304 1 c1816
0 3326 4 3353 9 62 11 50 8 115 29 168 56 331 158 460 286 163 162 255 321
321 557 l22 78 2 1297 1 1298 -7053 2 -7054 3 461 615 c254 338 470 626 480
640 10 14 32 43 49 65 16 22 114 153 218 291 103 138 284 379 401 536 l214
284 551 -2 c762 -3 3052 -13 4417 -20 2084 -10 2510 -11 2510 -9 0 1 22 85 49
186 27 101 79 299 115 439 49 187 77 276 106 335 78 156 214 265 384 306 92
22 376 20 446 -4z"/>
</g>
</svg>
